PathFileType	3	(X/Y/Z)	F:\ViconData\AntennenMessung\Messung1\Session1\ID22.trc
DataRate	CameraRate	NumFrames	NumMarkers	Units	OrigDataRate	OrigDataStartFrame	OrigNumFrames
120.0	120.0	4	70	mm	120.0	531	1060	
Frame#	Time	Ashort			Along			Atop			A4			Bshort			Blong			Btop			B4			Cshort			Clong			Ctop			C4			Dshort			Dlong			Dtop			D4			Eshort			Elong			Etop			E4			Fshort			Flong			Ftop			F4			Gshort			Glong			Gtop			G4			Hshort			Hlong			Htop			H4			I1			I2			I3			I4			I5			WandAshort			WandAlong			WandAtop			WandA4			WandA15			WandBshort			WandB4			WandB5			WandBtop			WandBlong			WandCshort			WandClong			WandCtop			WandC4			WandC5			Acenter			Aantenna			Bcenter			Bantenna			Ccenter			Cantenna			Dcenter			Dantenna			Ecenter			Eantenna			Fcenter			Fantenna			Gcenter			Gantenna			Hcenter			Hantenna			Icenter			Iantenna			
		X1	Y1	Z1	X2	Y2	Z2	X3	Y3	Z3	X4	Y4	Z4	X5	Y5	Z5	X6	Y6	Z6	X7	Y7	Z7	X8	Y8	Z8	X9	Y9	Z9	X10	Y10	Z10	X11	Y11	Z11	X12	Y12	Z12	X13	Y13	Z13	X14	Y14	Z14	X15	Y15	Z15	X16	Y16	Z16	X17	Y17	Z17	X18	Y18	Z18	X19	Y19	Z19	X20	Y20	Z20	X21	Y21	Z21	X22	Y22	Z22	X23	Y23	Z23	X24	Y24	Z24	X25	Y25	Z25	X26	Y26	Z26	X27	Y27	Z27	X28	Y28	Z28	X29	Y29	Z29	X30	Y30	Z30	X31	Y31	Z31	X32	Y32	Z32	X33	Y33	Z33	X34	Y34	Z34	X35	Y35	Z35	X36	Y36	Z36	X37	Y37	Z37	X38	Y38	Z38	X39	Y39	Z39	X40	Y40	Z40	X41	Y41	Z41	X42	Y42	Z42	X43	Y43	Z43	X44	Y44	Z44	X45	Y45	Z45	X46	Y46	Z46	X47	Y47	Z47	X48	Y48	Z48	X49	Y49	Z49	X50	Y50	Z50	X51	Y51	Z51	X52	Y52	Z52	X53	Y53	Z53	X54	Y54	Z54	X55	Y55	Z55	X56	Y56	Z56	X57	Y57	Z57	X58	Y58	Z58	X59	Y59	Z59	X60	Y60	Z60	X61	Y61	Z61	X62	Y62	Z62	X63	Y63	Z63	X64	Y64	Z64	X65	Y65	Z65	X66	Y66	Z66	X67	Y67	Z67	X68	Y68	Z68	X69	Y69	Z69	X70	Y70	Z70	
531	4.4166667	-1038.2321	214.66327	-1644.0692	-1109.4604	204.28355	-1599.3668	-1063.6091	173.04857	-1625.8492	-1054.1605	262.383	-1634.8649	-1352.5844	235.18362	1003.4287	-1281.3167	227.53285	1052.1031	-1322.5862	194.05618	1020.8043	-1284.4288	288.02246	1052.5178	814.00214	187.44199	1209.4146	892.34546	178.81787	1178.8761	844.53662	145.47855	1198.2207	861.091	292.20126	1168.1458	1115.838	210.07564	-1401.839	1056.2909	194.11583	-1460.1532	1094.8915	162.0849	-1423.8259	1069.678	239.54472	-1426.2943	-1204.5708	1686.0156	-1563.1813	-1129.1377	1688.3723	-1606.0302	-1173.2296	1724.5142	-1581.8934	-1134.0051	1581.087	-1603.9453	-1239.5437	1698.9705	1119.4631	-1309.4271	1698.8317	1071.9589	-1270.4877	1736.3187	1096.9181	-1245.6559	1592.8896	1110.7173	988.85229	1664.2063	1162.1271	957.25024	1700.5334	1183.7933	921.85651	1662.3235	1214.8423	939.85162	1659.46	1159.7385	999.05029	1668.4088	-1579.4182	1058.9371	1670.1677	-1518.7295	1025.0015	1708.0962	-1551.1877	1059.2999	1672.1899	-1585.4747	-272.59058	1636.8972	-231.73418	-187.63377	1640.224	-238.04178	-235.6743	1675.2324	-233.83609	-233.42949	1637.8153	-202.59103	-239.35674	1639.2245	-281.28647																																														-1068.5308	210.24799	-1625.0537	-1073.6451	248.90236	-1624.2274	-1321.2711	231.82205	1024.8149	-1319.9215	270.58075	1028.9312	847.94977	183.70499	1196.1816	851.41333	222.49573	1194.1124	1088.588	202.77209	-1428.5248	1082.6556	241.06377	-1432.9469	-1171.9539	1687.0345	-1581.7087	-1170.627	1648.0576	-1581.517	-1271.1389	1698.9076	1097.9857	-1271.8176	1659.9294	1099.098	952.67981	1705.7871	1186.9266	972.66388	1733.9662	1168.8278	1026.5305	1669.2159	-1551.5698	1028.0632	1630.2478	-1551.953	-234.28696	1638.397	-234.578	-232.81946	1599.4326	-235.36282
532	4.425	-1038.2135	214.67809	-1644.1097	-1109.5309	203.84821	-1599.4622	-1063.5743	173.06937	-1625.8691	-1054.1436	262.4144	-1634.8934	-1352.5897	235.41005	1003.3279	-1281.3085	227.43011	1052.103	-1322.6077	194.07326	1020.7794	-1284.5447	287.96826	1052.5996	814.01343	187.74667	1209.4518	892.42389	178.63666	1178.9012	844.53668	145.32838	1198.4592	861.01685	292.30966	1168.2761	1115.8359	210.08096	-1401.8496	1056.3093	194.08205	-1460.1644	1094.8802	162.07039	-1423.8119	1069.6945	239.52019	-1426.2727	-1204.5713	1686.025	-1563.189	-1129.13	1688.3573	-1606.0042	-1173.2335	1724.5096	-1581.896	-1134.0067	1581.0992	-1603.9568	-1239.5249	1698.954	1119.4469	-1309.3887	1698.7954	1071.9417	-1270.4749	1736.306	1096.9092	-1245.6426	1592.8575	1110.7128	988.83923	1664.1984	1162.1183	957.22748	1700.5542	1183.7992	921.91394	1662.3025	1214.8344	939.80286	1659.4869	1159.7087	999.08093	1668.4352	-1579.4259	1058.9363	1670.1799	-1518.7382	1024.9985	1708.0847	-1551.1901	1059.2971	1672.1825	-1585.4716	-272.62152	1636.9235	-231.72473	-187.82109	1640.0847	-237.96729	-235.67667	1675.2428	-233.84427	-233.38321	1637.7698	-202.56659	-239.34756	1639.2227	-281.26816																																														-1068.6721	210.0528	-1625.0413	-1073.9963	248.67796	-1624.1768	-1321.1521	231.89061	1024.8394	-1319.6608	270.6394	1028.9995	848.11133	183.78503	1196.1664	851.7146	222.54938	1193.8552	1088.5837	202.75641	-1428.547	1082.6582	241.04521	-1433.0031	-1171.9613	1687.0331	-1581.6959	-1170.6382	1648.0562	-1581.488	-1271.1108	1698.8822	1097.9691	-1271.7732	1659.9036	1099.0734	952.71393	1705.7451	1186.8947	972.68811	1733.9182	1168.7754	1026.5358	1669.2355	-1551.5891	1028.0776	1630.2679	-1551.9895	-234.35263	1638.35	-234.54187	-232.95415	1599.3821	-235.27872
533	4.4333333	-1038.2172	214.65977	-1644.0914	-1109.4706	204.27754	-1599.3654	-1063.5707	173.01707	-1625.8572	-1054.1478	262.37305	-1634.9055	-1352.6088	235.36316	1003.3694	-1281.3813	227.39914	1052.0953	-1322.559	194.10529	1020.7682	-1284.4431	288.07516	1052.5746	814.01434	187.47694	1209.3767	892.40833	178.56146	1178.9979	844.5564	145.42877	1198.246	861.02948	292.30084	1168.1947	1115.8362	210.05199	-1401.8521	1056.302	194.11098	-1460.2162	1094.9148	162.08696	-1423.8341	1069.662	239.50189	-1426.285	-1204.5715	1686.0135	-1563.1776	-1129.1281	1688.3632	-1606.0084	-1173.2249	1724.5098	-1581.8947	-1134.0051	1581.0961	-1603.9568	-1239.5496	1698.9747	1119.4556	-1309.3678	1698.7866	1071.9431	-1270.5981	1736.4824	1096.9899	-1245.6346	1592.8311	1110.7012	988.85449	1664.2054	1162.1178	957.28253	1700.5065	1183.8092	921.85632	1662.3252	1214.8335	939.8075	1659.476	1159.7306	999.04706	1668.4674	-1579.4829	1058.9424	1670.1776	-1518.7422	1025.0016	1708.0789	-1551.1904	1059.2861	1672.218	-1585.5702	-272.64462	1636.9436	-231.73097	-187.8246	1640.0692	-237.96992	-235.67633	1675.2452	-233.84126	-233.37343	1637.7673	-202.55574	-239.35579	1639.2253	-281.27225																																														-1068.5065	210.24635	-1625.0787	-1073.6313	248.89975	-1624.2703	-1321.156	231.84637	1024.8859	-1319.7157	270.58984	1029.1129	848.09326	183.60126	1196.1704	851.68622	222.37811	1194.0621	1088.6248	202.76581	-1428.5284	1082.7035	241.05952	-1432.9476	-1171.9467	1687.0295	-1581.6992	-1170.6174	1648.0529	-1581.4962	-1271.1506	1698.8895	1097.9504	-1271.7234	1659.9064	1098.9465	952.68665	1705.7905	1186.9667	972.68109	1733.9794	1168.894	1026.5338	1669.2522	-1551.608	1028.0717	1630.2847	-1552.0273	-234.36868	1638.354	-234.54634	-232.98743	1599.3856	-235.29114
534	4.4416667	-1038.2043	214.67575	-1644.1106	-1109.5055	204.19125	-1599.2979	-1063.9818	173.12254	-1625.5461	-1054.1232	262.35641	-1634.8833	-1352.5531	235.40295	1003.3116	-1281.3918	227.49374	1052.1	-1322.5535	194.08694	1020.8167	-1284.4131	288.0676	1052.5057	813.91339	187.63774	1209.4429	892.52661	178.78253	1178.8622	844.57587	145.3718	1198.4261	861.16943	292.38681	1168.214	1115.8425	210.05629	-1401.8562	1056.2769	194.10675	-1460.1936	1094.8749	162.05019	-1423.772	1069.6598	239.47403	-1426.3101	-1204.5764	1686.0099	-1563.1748	-1129.1238	1688.3776	-1606.0388	-1173.2249	1724.5142	-1581.8915	-1134.0088	1581.1094	-1603.9623	-1239.5814	1699.0472	1119.4808	-1309.3804	1698.7865	1071.9381	-1270.4517	1736.2728	1096.912	-1245.658	1592.903	1110.7157	988.88647	1664.2333	1162.1307	957.26959	1700.5721	1183.8307	921.94678	1662.2812	1214.8107	939.79486	1659.4431	1159.7416	999.06647	1668.4659	-1579.4597	1058.9368	1670.1794	-1518.7354	1025.0079	1708.0867	-1551.1964	1059.3086	1672.1879	-1585.4625	-272.64481	1636.941	-231.72559	-187.79166	1640.09	-237.94777	-235.67261	1675.2441	-233.83829	-233.41975	1637.8047	-202.5999	-239.35666	1639.2333	-281.26437																																														-1068.95	210.15472	-1624.7869	-1074.1348	248.80045	-1623.9946	-1321.1223	231.90958	1024.8606	-1319.6559	270.6611	1029.004	848.02728	183.79504	1196.1725	851.51056	222.57256	1193.8981	1088.62	202.76706	-1428.5173	1082.7372	241.06163	-1432.9806	-1171.9464	1687.0338	-1581.7115	-1170.6169	1648.0569	-1581.5245	-1271.0739	1698.9294	1098.0302	-1271.7231	1659.9524	1099.1973	952.76526	1705.749	1186.9222	972.75018	1733.9366	1168.8374	1026.5315	1669.2521	-1551.6027	1028.0603	1630.2841	-1552.0104	-234.35486	1638.3621	-234.53333	-232.96259	1599.3937	-235.2677
